# xmcd
#
# Track frame offsets:
#	150
#	24557
#	39980
#	56960
#	72292
#	81045
#	100332
#	115460
#	130920
#	145287
#
# Disc length: 2201 seconds
#
# Revision: 0
# Processed by: cddbd v1.5.1PL2 Copyright (c) Steve Scherf et al.
# Submitted via: EasyCDDAExtractor 8.0.2.1
#
DISCID=8e08970a
DTITLE=Arnt Fredrik Hansen - Only the man
DYEAR=2000
DGENRE=country
TTITLE0=Only the night
TTITLE1=Third rate romance
TTITLE2=Mama knows the highway
TTITLE3=Make it last
TTITLE4=Hearts doing time
TTITLE5=Dont believe in love
TTITLE6=Burning rose
TTITLE7=Two steps behind
TTITLE8=I cant wait
TTITLE9=Victim of lifes circumstanses
EXTD=
EXTT0=
EXTT1=
EXTT2=
EXTT3=
EXTT4=
EXTT5=
EXTT6=
EXTT7=
EXTT8=
EXTT9=
PLAYORDER=
